<svg id="SvgjsSvg1715" width="1026" height="644" xmlns="http://www.w3.org/2000/svg" version="1.1" xmlns:xlink="http://www.w3.org/1999/xlink" xmlns:svgjs="http://svgjs.com/svgjs"><defs id="SvgjsDefs1716"><marker id="SvgjsMarker1755" markerWidth="16" markerHeight="12" refX="16" refY="6" viewBox="0 0 16 12" orient="auto" markerUnits="userSpaceOnUse" stroke-dasharray="0,0"><path id="SvgjsPath1756" d="M0,2 L14,6 L0,11 L0,2" fill="#323232" stroke="#323232" stroke-width="2"></path></marker><marker id="SvgjsMarker1767" markerWidth="16" markerHeight="12" refX="16" refY="6" viewBox="0 0 16 12" orient="auto" markerUnits="userSpaceOnUse" stroke-dasharray="0,0"><path id="SvgjsPath1768" d="M0,2 L14,6 L0,11 L0,2" fill="#323232" stroke="#323232" stroke-width="2"></path></marker><marker id="SvgjsMarker1787" markerWidth="16" markerHeight="12" refX="16" refY="6" viewBox="0 0 16 12" orient="auto" markerUnits="userSpaceOnUse" stroke-dasharray="0,0"><path id="SvgjsPath1788" d="M0,2 L14,6 L0,11 L0,2" fill="#323232" stroke="#323232" stroke-width="2"></path></marker><marker id="SvgjsMarker1807" markerWidth="16" markerHeight="12" refX="16" refY="6" viewBox="0 0 16 12" orient="auto" markerUnits="userSpaceOnUse" stroke-dasharray="0,0"><path id="SvgjsPath1808" d="M0,2 L14,6 L0,11 L0,2" fill="#323232" stroke="#323232" stroke-width="2"></path></marker><marker id="SvgjsMarker1811" markerWidth="16" markerHeight="12" refX="16" refY="6" viewBox="0 0 16 12" orient="auto" markerUnits="userSpaceOnUse" stroke-dasharray="0,0"><path id="SvgjsPath1812" d="M0,2 L14,6 L0,11 L0,2" fill="#323232" stroke="#323232" stroke-width="2"></path></marker><marker id="SvgjsMarker1827" markerWidth="16" markerHeight="12" refX="16" refY="6" viewBox="0 0 16 12" orient="auto" markerUnits="userSpaceOnUse" stroke-dasharray="0,0"><path id="SvgjsPath1828" d="M0,2 L14,6 L0,11 L0,2" fill="#323232" stroke="#323232" stroke-width="2"></path></marker><marker id="SvgjsMarker1855" markerWidth="16" markerHeight="12" refX="16" refY="6" viewBox="0 0 16 12" orient="auto" markerUnits="userSpaceOnUse" stroke-dasharray="0,0"><path id="SvgjsPath1856" d="M0,2 L14,6 L0,11 L0,2" fill="#323232" stroke="#323232" stroke-width="2"></path></marker><marker id="SvgjsMarker1859" markerWidth="16" markerHeight="12" refX="16" refY="6" viewBox="0 0 16 12" orient="auto" markerUnits="userSpaceOnUse" stroke-dasharray="0,0"><path id="SvgjsPath1860" d="M0,2 L14,6 L0,11 L0,2" fill="#323232" stroke="#323232" stroke-width="2"></path></marker><marker id="SvgjsMarker1881" markerWidth="16" markerHeight="12" refX="16" refY="6" viewBox="0 0 16 12" orient="auto" markerUnits="userSpaceOnUse" stroke-dasharray="0,0"><path id="SvgjsPath1882" d="M0,2 L14,6 L0,11 L0,2" fill="#323232" stroke="#323232" stroke-width="2"></path></marker><marker id="SvgjsMarker1903" markerWidth="16" markerHeight="12" refX="16" refY="6" viewBox="0 0 16 12" orient="auto" markerUnits="userSpaceOnUse" stroke-dasharray="0,0"><path id="SvgjsPath1904" d="M0,2 L14,6 L0,11 L0,2" fill="#323232" stroke="#323232" stroke-width="2"></path></marker><marker id="SvgjsMarker1915" markerWidth="16" markerHeight="12" refX="16" refY="6" viewBox="0 0 16 12" orient="auto" markerUnits="userSpaceOnUse" stroke-dasharray="0,0"><path id="SvgjsPath1916" d="M0,2 L14,6 L0,11 L0,2" fill="#323232" stroke="#323232" stroke-width="2"></path></marker><marker id="SvgjsMarker1941" markerWidth="16" markerHeight="12" refX="16" refY="6" viewBox="0 0 16 12" orient="auto" markerUnits="userSpaceOnUse" stroke-dasharray="0,0"><path id="SvgjsPath1942" d="M0,2 L14,6 L0,11 L0,2" fill="#323232" stroke="#323232" stroke-width="2"></path></marker></defs><g id="SvgjsG1717" transform="translate(38,25)"><path id="SvgjsPath1718" d="M 0 0L 218 0L 218 35L 0 35Z" stroke="none" fill="none"></path><g id="SvgjsG1719"><text id="SvgjsText1720" font-family="微软雅黑" text-anchor="middle" font-size="17px" width="218px" fill="#323232" font-weight="700" align="middle" anchor="middle" family="微软雅黑" size="17px" weight="700" font-style="" opacity="1" y="4.45" transform="rotate(0)"><tspan id="SvgjsTspan1721" dy="21" x="109"><tspan id="SvgjsTspan1722" style="text-decoration:;">Data Flow Diagram</tspan></tspan></text></g></g><g id="SvgjsG1723" transform="translate(71.5,227)"><path id="SvgjsPath1724" d="M 0 6.6000000000000005L 141 6.6000000000000005L 141 0L 151 10L 141 20L 141 13.4L 0 13.4L 0 6.6000000000000005Z" stroke="rgba(50,50,50,1)" stroke-width="2" fill-opacity="1" fill="#ffffff"></path><g id="SvgjsG1725"><text id="SvgjsText1726" font-family="微软雅黑" text-anchor="middle" font-size="13px" width="151px" fill="#323232" font-weight="400" align="middle" anchor="middle" family="微软雅黑" size="13px" weight="400" font-style="" opacity="1" y="0.05000000000000093" transform="rotate(0)"></text></g></g><g id="SvgjsG1727" transform="translate(81.5,201)"><path id="SvgjsPath1728" d="M 0 0L 120 0L 120 40L 0 40Z" stroke="none" fill="none"></path><g id="SvgjsG1729"><text id="SvgjsText1730" font-family="微软雅黑" text-anchor="middle" font-size="14px" width="120px" fill="#323232" font-weight="700" align="middle" anchor="middle" family="微软雅黑" size="14px" weight="700" font-style="" opacity="1" y="8.9" transform="rotate(0)"><tspan id="SvgjsTspan1731" dy="17" x="60"><tspan id="SvgjsTspan1732" style="text-decoration:;">Product Name</tspan></tspan></text></g></g><g id="SvgjsG1733" transform="translate(227,202)"><path id="SvgjsPath1734" d="M 0 0L 128 0L 128 70L 0 70Z" stroke="rgba(50,50,50,1)" stroke-width="2" fill-opacity="1" fill="#ffffff"></path><g id="SvgjsG1735"><text id="SvgjsText1736" font-family="微软雅黑" text-anchor="middle" font-size="17px" width="108px" fill="#323232" font-weight="700" align="middle" anchor="middle" family="微软雅黑" size="17px" weight="700" font-style="" opacity="1" y="11.45" transform="rotate(0)"><tspan id="SvgjsTspan1737" dy="21" x="64"><tspan id="SvgjsTspan1738" style="text-decoration:;">Search </tspan></tspan><tspan id="SvgjsTspan1739" dy="21" x="64"><tspan id="SvgjsTspan1740" style="text-decoration:;">Database</tspan></tspan></text></g></g><g id="SvgjsG1741" transform="matrix(-1.8369701987210297e-16,-1,1,-1.8369701987210297e-16,257,148)"><path id="SvgjsPath1742" d="M 10.2 0L 56.5 0C 71.13636363636364 0 71.13636363636364 69 56.5 69L 10.2 69C -3.4000000000000004 69 -3.4000000000000004 0 10.2 0ZM 56.5 0C 42.125 0 42.125 69 56.5 69C 42.125 69 42.125 0 56.5 0" stroke="rgba(50,50,50,1)" stroke-width="2" fill-opacity="1" fill="#ffffff"></path><g id="SvgjsG1743"><text id="SvgjsText1744" font-family="微软雅黑" text-anchor="middle" font-size="13px" width="55px" fill="#323232" font-weight="700" align="middle" anchor="middle" family="微软雅黑" size="13px" weight="700" font-style="" opacity="1" y="24.55" transform="rotate(0)"></text></g></g><g id="SvgjsG1745" transform="translate(231.5,105.5)"><path id="SvgjsPath1746" d="M 0 0L 120 0L 120 40L 0 40Z" stroke="none" fill="none"></path><g id="SvgjsG1747"><text id="SvgjsText1748" font-family="微软雅黑" text-anchor="middle" font-size="14px" width="120px" fill="#323232" font-weight="700" align="middle" anchor="middle" family="微软雅黑" size="14px" weight="700" font-style="" opacity="1" y="-0.10000000000000009" transform="rotate(0)"><tspan id="SvgjsTspan1749" dy="17" x="60"><tspan id="SvgjsTspan1750" style="text-decoration:;">Product</tspan></tspan><tspan id="SvgjsTspan1751" dy="17" x="60"><tspan id="SvgjsTspan1752" style="text-decoration:;">Database</tspan></tspan></text></g></g><g id="SvgjsG1753"><path id="SvgjsPath1754" d="M291.5 145.5L291.5 173.75L291 173.75L291 202" stroke="#323232" stroke-width="2" fill="none" marker-end="url(#SvgjsMarker1755)"></path></g><g id="SvgjsG1757" transform="translate(457,202)"><path id="SvgjsPath1758" d="M 0 0L 176 0L 176 70L 0 70Z" stroke="rgba(50,50,50,1)" stroke-width="2" fill-opacity="1" fill="#ffffff"></path><g id="SvgjsG1759"><text id="SvgjsText1760" font-family="微软雅黑" text-anchor="middle" font-size="16px" width="156px" fill="#323232" font-weight="700" align="middle" anchor="middle" family="微软雅黑" size="16px" weight="700" font-style="" opacity="1" y="12.6" transform="rotate(0)"><tspan id="SvgjsTspan1761" dy="20" x="88"><tspan id="SvgjsTspan1762" style="text-decoration:;">List Products for </tspan></tspan><tspan id="SvgjsTspan1763" dy="20" x="88"><tspan id="SvgjsTspan1764" style="text-decoration:;">Choice</tspan></tspan></text></g></g><g id="SvgjsG1765"><path id="SvgjsPath1766" d="M355 237L406 237L406 237L457 237" stroke="#323232" stroke-width="2" fill="none" marker-end="url(#SvgjsMarker1767)"></path></g><g id="SvgjsG1769" transform="translate(341,217)"><path id="SvgjsPath1770" d="M 0 0L 120 0L 120 40L 0 40Z" stroke="none" fill="none"></path><g id="SvgjsG1771"><text id="SvgjsText1772" font-family="微软雅黑" text-anchor="middle" font-size="14px" width="120px" fill="#323232" font-weight="700" align="middle" anchor="middle" family="微软雅黑" size="14px" weight="700" font-style="" opacity="1" y="-0.10000000000000009" transform="rotate(0)"><tspan id="SvgjsTspan1773" dy="17" x="60"><tspan id="SvgjsTspan1774" style="text-decoration:;">Product</tspan></tspan><tspan id="SvgjsTspan1775" dy="17" x="60"><tspan id="SvgjsTspan1776" style="text-decoration:;">Information</tspan></tspan></text></g></g><g id="SvgjsG1777" transform="translate(734,202)"><path id="SvgjsPath1778" d="M 0 0L 106 0L 106 70L 0 70Z" stroke="rgba(50,50,50,1)" stroke-width="2" fill-opacity="1" fill="#ffffff"></path><g id="SvgjsG1779"><text id="SvgjsText1780" font-family="微软雅黑" text-anchor="middle" font-size="14px" width="86px" fill="#323232" font-weight="700" align="middle" anchor="middle" family="微软雅黑" size="14px" weight="700" font-style="" opacity="1" y="14.9" transform="rotate(0)"><tspan id="SvgjsTspan1781" dy="17" x="53"><tspan id="SvgjsTspan1782" style="text-decoration:;">Display</tspan></tspan><tspan id="SvgjsTspan1783" dy="17" x="53"><tspan id="SvgjsTspan1784" style="text-decoration:;">Description</tspan></tspan></text></g></g><g id="SvgjsG1785"><path id="SvgjsPath1786" d="M633 237L683.5 237L683.5 237L734 237" stroke="#323232" stroke-width="2" fill="none" marker-end="url(#SvgjsMarker1787)"></path></g><g id="SvgjsG1789" transform="translate(621,217)"><path id="SvgjsPath1790" d="M 0 0L 120 0L 120 40L 0 40Z" stroke="none" fill="none"></path><g id="SvgjsG1791"><text id="SvgjsText1792" font-family="微软雅黑" text-anchor="middle" font-size="14px" width="120px" fill="#323232" font-weight="700" align="middle" anchor="middle" family="微软雅黑" size="14px" weight="700" font-style="" opacity="1" y="-0.10000000000000009" transform="rotate(0)"><tspan id="SvgjsTspan1793" dy="17" x="60"><tspan id="SvgjsTspan1794" style="text-decoration:;">Selected</tspan></tspan><tspan id="SvgjsTspan1795" dy="17" x="60"><tspan id="SvgjsTspan1796" style="text-decoration:;">Product</tspan></tspan></text></g></g><g id="SvgjsG1797" transform="translate(638,373)"><path id="SvgjsPath1798" d="M 0 0L 165 0L 165 71L 0 71Z" stroke="rgba(50,50,50,1)" stroke-width="2" fill-opacity="1" fill="#ffffff"></path><g id="SvgjsG1799"><text id="SvgjsText1800" font-family="微软雅黑" text-anchor="middle" font-size="17px" width="145px" fill="#323232" font-weight="700" align="middle" anchor="middle" family="微软雅黑" size="17px" weight="700" font-style="" opacity="1" y="11.95" transform="rotate(0)"><tspan id="SvgjsTspan1801" dy="21" x="82.5"><tspan id="SvgjsTspan1802" style="text-decoration:;">Purchase </tspan></tspan><tspan id="SvgjsTspan1803" dy="21" x="82.5"><tspan id="SvgjsTspan1804" style="text-decoration:;">Compuation</tspan></tspan></text></g></g><g id="SvgjsG1805"><path id="SvgjsPath1806" d="M545 272L545 322.5L720.5 322.5L720.5 373" stroke="#323232" stroke-width="2" fill="none" marker-end="url(#SvgjsMarker1807)"></path></g><g id="SvgjsG1809"><path id="SvgjsPath1810" d="M787 272L787 322.5L762.4047619047619 322.5L762.4047619047619 373" stroke="#323232" stroke-width="2" fill="none" marker-end="url(#SvgjsMarker1811)"></path></g><g id="SvgjsG1813" transform="translate(539,289)"><path id="SvgjsPath1814" d="M 0 0L 120 0L 120 40L 0 40Z" stroke="none" fill="none"></path><g id="SvgjsG1815"><text id="SvgjsText1816" font-family="微软雅黑" text-anchor="middle" font-size="13px" width="120px" fill="#323232" font-weight="400" align="middle" anchor="middle" family="微软雅黑" size="13px" weight="400" font-style="" opacity="1" y="10.05" transform="rotate(0)"><tspan id="SvgjsTspan1817" dy="16" x="60"><tspan id="SvgjsTspan1818" style="text-decoration:;">Add to Cart</tspan></tspan></text></g></g><g id="SvgjsG1819" transform="translate(768,289)"><path id="SvgjsPath1820" d="M 0 0L 120 0L 120 40L 0 40Z" stroke="none" fill="none"></path><g id="SvgjsG1821"><text id="SvgjsText1822" font-family="微软雅黑" text-anchor="middle" font-size="13px" width="120px" fill="#323232" font-weight="400" align="middle" anchor="middle" family="微软雅黑" size="13px" weight="400" font-style="" opacity="1" y="10.05" transform="rotate(0)"><tspan id="SvgjsTspan1823" dy="16" x="60"><tspan id="SvgjsTspan1824" style="text-decoration:;">Add to Cart</tspan></tspan></text></g></g><g id="SvgjsG1825"><path id="SvgjsPath1826" d="M883 408.5L843 408.5L843 408.5L803 408.5" stroke="#323232" stroke-width="2" fill="none" marker-end="url(#SvgjsMarker1827)"></path></g><g id="SvgjsG1829" transform="translate(881,388.5)"><path id="SvgjsPath1830" d="M 0 0L 120 0L 120 40L 0 40Z" stroke="none" fill="none"></path><g id="SvgjsG1831"><text id="SvgjsText1832" font-family="微软雅黑" text-anchor="middle" font-size="14px" width="120px" fill="#323232" font-weight="700" align="middle" anchor="middle" family="微软雅黑" size="14px" weight="700" font-style="" opacity="1" y="-0.10000000000000009" transform="rotate(0)"><tspan id="SvgjsTspan1833" dy="17" x="60"><tspan id="SvgjsTspan1834" style="text-decoration:;">Products already</tspan></tspan><tspan id="SvgjsTspan1835" dy="17" x="60"><tspan id="SvgjsTspan1836" style="text-decoration:;">in the Cart</tspan></tspan></text></g></g><g id="SvgjsG1837" transform="translate(416,373.5)"><path id="SvgjsPath1838" d="M 0 0L 100 0L 100 70L 0 70Z" stroke="rgba(50,50,50,1)" stroke-width="2" fill-opacity="1" fill="#ffffff"></path><g id="SvgjsG1839"><text id="SvgjsText1840" font-family="微软雅黑" text-anchor="middle" font-size="17px" width="80px" fill="#323232" font-weight="700" align="middle" anchor="middle" family="微软雅黑" size="17px" weight="700" font-style="" opacity="1" y="11.45" transform="rotate(0)"><tspan id="SvgjsTspan1841" dy="21" x="50"><tspan id="SvgjsTspan1842" style="text-decoration:;">Generate </tspan></tspan><tspan id="SvgjsTspan1843" dy="21" x="50"><tspan id="SvgjsTspan1844" style="text-decoration:;">Order</tspan></tspan></text></g></g><g id="SvgjsG1845" transform="translate(518,388.5)"><path id="SvgjsPath1846" d="M 0 0L 120 0L 120 40L 0 40Z" stroke="none" fill="none"></path><g id="SvgjsG1847"><text id="SvgjsText1848" font-family="微软雅黑" text-anchor="middle" font-size="14px" width="120px" fill="#323232" font-weight="700" align="middle" anchor="middle" family="微软雅黑" size="14px" weight="700" font-style="" opacity="1" y="-0.10000000000000009" transform="rotate(0)"><tspan id="SvgjsTspan1849" dy="17" x="60"><tspan id="SvgjsTspan1850" style="text-decoration:;">Fee of </tspan></tspan><tspan id="SvgjsTspan1851" dy="17" x="60"><tspan id="SvgjsTspan1852" style="text-decoration:;">Selected Product</tspan></tspan></text></g></g><g id="SvgjsG1853"><path id="SvgjsPath1854" d="M638 408.5L577 408.5L577 408.5L516 408.5" stroke="#323232" stroke-width="2" fill="none" marker-end="url(#SvgjsMarker1855)"></path></g><g id="SvgjsG1857"><path id="SvgjsPath1858" d="M466 545L466 494.25L466 494.25L466 443.5" stroke="#323232" stroke-width="2" fill="none" marker-end="url(#SvgjsMarker1859)"></path></g><g id="SvgjsG1861" transform="translate(457,473)"><path id="SvgjsPath1862" d="M 0 0L 120 0L 120 40L 0 40Z" stroke="none" fill="none"></path><g id="SvgjsG1863"><text id="SvgjsText1864" font-family="微软雅黑" text-anchor="middle" font-size="14px" width="120px" fill="#323232" font-weight="700" align="middle" anchor="middle" family="微软雅黑" size="14px" weight="700" font-style="" opacity="1" y="-0.10000000000000009" transform="rotate(0)"><tspan id="SvgjsTspan1865" dy="17" x="60"><tspan id="SvgjsTspan1866" style="text-decoration:;">Customer's </tspan></tspan><tspan id="SvgjsTspan1867" dy="17" x="60"><tspan id="SvgjsTspan1868" style="text-decoration:;">Address Info</tspan></tspan></text></g></g><g id="SvgjsG1869" transform="translate(404,545)"><path id="SvgjsPath1870" d="M 0 0L 124 0L 124 74L 0 74Z" stroke="rgba(50,50,50,1)" stroke-width="2" fill-opacity="1" fill="#ffffff"></path><g id="SvgjsG1871"><text id="SvgjsText1872" font-family="微软雅黑" text-anchor="middle" font-size="14px" width="104px" fill="#323232" font-weight="700" align="middle" anchor="middle" family="微软雅黑" size="14px" weight="700" font-style="" opacity="1" y="7.9" transform="rotate(0)"><tspan id="SvgjsTspan1873" dy="17" x="62"><tspan id="SvgjsTspan1874" style="text-decoration:;">Get </tspan></tspan><tspan id="SvgjsTspan1875" dy="17" x="62"><tspan id="SvgjsTspan1876" style="text-decoration:;">Customer's </tspan></tspan><tspan id="SvgjsTspan1877" dy="17" x="62"><tspan id="SvgjsTspan1878" style="text-decoration:;">Address Info</tspan></tspan></text></g></g><g id="SvgjsG1879"><path id="SvgjsPath1880" d="M611 582L571 582L571 582L531 582" stroke="#323232" stroke-width="2" fill="none" marker-end="url(#SvgjsMarker1881)"></path></g><g id="SvgjsG1883" transform="translate(609,562)"><path id="SvgjsPath1884" d="M 0 0L 120 0L 120 40L 0 40Z" stroke="none" fill="none"></path><g id="SvgjsG1885"><text id="SvgjsText1886" font-family="微软雅黑" text-anchor="middle" font-size="14px" width="120px" fill="#323232" font-weight="700" align="middle" anchor="middle" family="微软雅黑" size="14px" weight="700" font-style="" opacity="1" y="-0.10000000000000009" transform="rotate(0)"><tspan id="SvgjsTspan1887" dy="17" x="60"><tspan id="SvgjsTspan1888" style="text-decoration:;">Customer's </tspan></tspan><tspan id="SvgjsTspan1889" dy="17" x="60"><tspan id="SvgjsTspan1890" style="text-decoration:;">Address Info</tspan></tspan></text></g></g><g id="SvgjsG1891" transform="translate(222.5,373.5)"><path id="SvgjsPath1892" d="M 0 0L 100 0L 100 70L 0 70Z" stroke="rgba(50,50,50,1)" stroke-width="2" fill-opacity="1" fill="#ffffff"></path><g id="SvgjsG1893"><text id="SvgjsText1894" font-family="微软雅黑" text-anchor="middle" font-size="15px" width="80px" fill="#323232" font-weight="700" align="middle" anchor="middle" family="微软雅黑" size="15px" weight="700" font-style="" opacity="1" y="4.25" transform="rotate(0)"><tspan id="SvgjsTspan1895" dy="18" x="50"><tspan id="SvgjsTspan1896" style="text-decoration:;">Payment </tspan></tspan><tspan id="SvgjsTspan1897" dy="18" x="50"><tspan id="SvgjsTspan1898" style="text-decoration:;">Successful </tspan></tspan><tspan id="SvgjsTspan1899" dy="18" x="50"><tspan id="SvgjsTspan1900" style="text-decoration:;">Info</tspan></tspan></text></g></g><g id="SvgjsG1901"><path id="SvgjsPath1902" d="M416 408.5L369.25 408.5L369.25 408.5L322.5 408.5" stroke="#323232" stroke-width="2" fill="none" marker-end="url(#SvgjsMarker1903)"></path></g><g id="SvgjsG1905" transform="translate(311,388.5)"><path id="SvgjsPath1906" d="M 0 0L 120 0L 120 40L 0 40Z" stroke="none" fill="none"></path><g id="SvgjsG1907"><text id="SvgjsText1908" font-family="微软雅黑" text-anchor="middle" font-size="14px" width="120px" fill="#323232" font-weight="700" align="middle" anchor="middle" family="微软雅黑" size="14px" weight="700" font-style="" opacity="1" y="-0.10000000000000009" transform="rotate(0)"><tspan id="SvgjsTspan1909" dy="17" x="60"><tspan id="SvgjsTspan1910" style="text-decoration:;">Payment</tspan></tspan><tspan id="SvgjsTspan1911" dy="17" x="60"><tspan id="SvgjsTspan1912" style="text-decoration:;">Information</tspan></tspan></text></g></g><g id="SvgjsG1913"><path id="SvgjsPath1914" d="M223 409L186.5 409L186.5 409L150 409" stroke="#323232" stroke-width="2" fill="none" marker-end="url(#SvgjsMarker1915)"></path></g><g id="SvgjsG1917" transform="translate(25,373.5)"><path id="SvgjsPath1918" d="M 0 0L 119 0L 119 62.5L 0 62.5Z" stroke="none" fill="none"></path><g id="SvgjsG1919"><text id="SvgjsText1920" font-family="微软雅黑" text-anchor="middle" font-size="15px" width="119px" fill="#323232" font-weight="700" align="middle" anchor="middle" family="微软雅黑" size="15px" weight="700" font-style="" opacity="1" y="0.5" transform="rotate(0)"><tspan id="SvgjsTspan1921" dy="18" x="59.5"><tspan id="SvgjsTspan1922" style="text-decoration:;">Payment </tspan></tspan><tspan id="SvgjsTspan1923" dy="18" x="59.5"><tspan id="SvgjsTspan1924" style="text-decoration:;">Successful </tspan></tspan><tspan id="SvgjsTspan1925" dy="18" x="59.5"><tspan id="SvgjsTspan1926" style="text-decoration:;">message</tspan></tspan></text></g></g><g id="SvgjsG1927" transform="matrix(-1.8369701987210297e-16,-1,1,-1.8369701987210297e-16,238,604)"><path id="SvgjsPath1928" d="M 10.2 0L 56.5 0C 71.13636363636364 0 71.13636363636364 69 56.5 69L 10.2 69C -3.4000000000000004 69 -3.4000000000000004 0 10.2 0ZM 56.5 0C 42.125 0 42.125 69 56.5 69C 42.125 69 42.125 0 56.5 0" stroke="rgba(50,50,50,1)" stroke-width="2" fill-opacity="1" fill="#ffffff"></path><g id="SvgjsG1929"><text id="SvgjsText1930" font-family="微软雅黑" text-anchor="middle" font-size="13px" width="55px" fill="#323232" font-weight="700" align="middle" anchor="middle" family="微软雅黑" size="13px" weight="700" font-style="" opacity="1" y="24.55" transform="rotate(0)"></text></g></g><g id="SvgjsG1931" transform="translate(212.5,561.5)"><path id="SvgjsPath1932" d="M 0 0L 120 0L 120 40L 0 40Z" stroke="none" fill="none"></path><g id="SvgjsG1933"><text id="SvgjsText1934" font-family="微软雅黑" text-anchor="middle" font-size="14px" width="120px" fill="#323232" font-weight="700" align="middle" anchor="middle" family="微软雅黑" size="14px" weight="700" font-style="" opacity="1" y="-0.10000000000000009" transform="rotate(0)"><tspan id="SvgjsTspan1935" dy="17" x="60"><tspan id="SvgjsTspan1936" style="text-decoration:;">Product</tspan></tspan><tspan id="SvgjsTspan1937" dy="17" x="60"><tspan id="SvgjsTspan1938" style="text-decoration:;">Database</tspan></tspan></text></g></g><g id="SvgjsG1939"><path id="SvgjsPath1940" d="M417.34202014332567 442.0603073792141L417.34202014332567 489.03015368960706L272.5 489.03015368960706L272.5 536" stroke="#323232" stroke-width="2" fill="none" marker-end="url(#SvgjsMarker1941)"></path></g><g id="SvgjsG1943" transform="translate(284,469)"><path id="SvgjsPath1944" d="M 0 0L 120 0L 120 40L 0 40Z" stroke="none" fill="none"></path><g id="SvgjsG1945"><text id="SvgjsText1946" font-family="微软雅黑" text-anchor="middle" font-size="14px" width="120px" fill="#323232" font-weight="700" align="middle" anchor="middle" family="微软雅黑" size="14px" weight="700" font-style="" opacity="1" y="-0.10000000000000009" transform="rotate(0)"><tspan id="SvgjsTspan1947" dy="17" x="60"><tspan id="SvgjsTspan1948" style="text-decoration:;">Payment</tspan></tspan><tspan id="SvgjsTspan1949" dy="17" x="60"><tspan id="SvgjsTspan1950" style="text-decoration:;">Record</tspan></tspan></text></g></g></svg>